<?xml version="1.0" encoding="UTF-8"?>
<svg xmlns="http://www.w3.org/2000/svg" width="1576" height="328" viewBox="0 0 1576 328" fill="none">
  <path d="M 1152.00 80.00 L 1152.00 251.00 L 1195.00 251.00 L 1195.00 80.00 Z M 376.00 80.00 L 376.00 87.00 L 378.00 88.00 L 378.00 91.00 L 380.00 93.00 L 380.00 97.00 L 382.00 98.00 L 382.00 103.00 L 384.00 104.00 L 384.00 109.00 L 386.00 110.00 L 386.00 115.00 L 388.00 116.00 L 388.00 120.00 L 390.00 122.00 L 390.00 125.00 L 392.00 126.00 L 392.00 131.00 L 394.00 132.00 L 394.00 137.00 L 396.00 138.00 L 396.00 143.00 L 398.00 144.00 L 398.00 149.00 L 400.00 150.00 L 400.00 154.00 L 402.00 156.00 L 402.00 160.00 L 404.00 162.00 L 404.00 167.00 L 406.00 168.00 L 406.00 172.00 L 408.00 174.00 L 408.00 178.00 L 410.00 180.00 L 410.00 185.00 L 412.00 186.00 L 412.00 190.00 L 414.00 192.00 L 414.00 195.00 L 416.00 196.00 L 416.00 201.00 L 418.00 203.00 L 418.00 207.00 L 420.00 208.00 L 420.00 213.00 L 422.00 215.00 L 422.00 219.00 L 424.00 220.00 L 424.00 224.00 L 426.00 226.00 L 426.00 230.00 L 428.00 232.00 L 428.00 236.00 L 430.00 238.00 L 430.00 241.00 L 432.00 243.00 L 432.00 248.00 L 434.00 250.00 L 434.00 251.00 L 436.00 252.00 L 439.00 252.00 L 440.00 251.00 L 475.00 251.00 L 475.00 248.00 L 477.00 247.00 L 477.00 242.00 L 479.00 241.00 L 479.00 236.00 L 481.00 235.00 L 481.00 230.00 L 483.00 229.00 L 483.00 224.00 L 485.00 223.00 L 485.00 218.00 L 487.00 217.00 L 487.00 212.00 L 489.00 211.00 L 489.00 206.00 L 491.00 205.00 L 491.00 202.00 L 493.00 200.00 L 493.00 195.00 L 495.00 193.00 L 495.00 190.00 L 497.00 189.00 L 497.00 184.00 L 499.00 182.00 L 499.00 178.00 L 501.00 176.00 L 501.00 172.00 L 503.00 171.00 L 503.00 166.00 L 505.00 165.00 L 505.00 160.00 L 507.00 159.00 L 507.00 154.00 L 509.00 153.00 L 509.00 149.00 L 510.00 148.00 L 512.00 150.00 L 512.00 154.00 L 514.00 156.00 L 514.00 159.00 L 516.00 160.00 L 516.00 165.00 L 518.00 167.00 L 518.00 171.00 L 520.00 172.00 L 520.00 177.00 L 522.00 178.00 L 522.00 183.00 L 524.00 184.00 L 524.00 189.00 L 526.00 190.00 L 526.00 195.00 L 528.00 196.00 L 528.00 201.00 L 530.00 202.00 L 530.00 207.00 L 532.00 208.00 L 532.00 213.00 L 534.00 214.00 L 534.00 218.00 L 536.00 220.00 L 536.00 224.00 L 538.00 226.00 L 538.00 229.00 L 540.00 231.00 L 540.00 236.00 L 542.00 238.00 L 542.00 242.00 L 544.00 244.00 L 544.00 249.00 L 545.00 249.00 L 546.00 251.00 L 587.00 251.00 L 587.00 248.00 L 589.00 246.00 L 589.00 240.00 L 591.00 239.00 L 591.00 234.00 L 593.00 233.00 L 593.00 229.00 L 595.00 227.00 L 595.00 222.00 L 597.00 221.00 L 597.00 218.00 L 599.00 216.00 L 599.00 210.00 L 601.00 209.00 L 601.00 204.00 L 603.00 203.00 L 603.00 200.00 L 605.00 198.00 L 605.00 194.00 L 607.00 193.00 L 607.00 188.00 L 609.00 187.00 L 609.00 182.00 L 611.00 181.00 L 611.00 176.00 L 613.00 174.00 L 613.00 170.00 L 615.00 169.00 L 615.00 164.00 L 617.00 163.00 L 617.00 158.00 L 619.00 157.00 L 619.00 153.00 L 621.00 151.00 L 621.00 146.00 L 623.00 145.00 L 623.00 141.00 L 625.00 139.00 L 625.00 134.00 L 627.00 133.00 L 627.00 130.00 L 629.00 128.00 L 629.00 124.00 L 631.00 122.00 L 631.00 118.00 L 633.00 117.00 L 633.00 112.00 L 635.00 110.00 L 635.00 106.00 L 637.00 105.00 L 637.00 100.00 L 639.00 99.00 L 639.00 94.00 L 641.00 93.00 L 641.00 89.00 L 643.00 87.00 L 643.00 80.00 L 598.00 80.00 L 598.00 81.00 L 596.00 82.00 L 596.00 89.00 L 594.00 90.00 L 594.00 94.00 L 592.00 96.00 L 592.00 99.00 L 590.00 101.00 L 590.00 107.00 L 588.00 109.00 L 588.00 115.00 L 586.00 116.00 L 586.00 119.00 L 584.00 121.00 L 584.00 127.00 L 582.00 128.00 L 582.00 133.00 L 580.00 134.00 L 580.00 140.00 L 578.00 142.00 L 578.00 147.00 L 576.00 148.00 L 576.00 153.00 L 574.00 154.00 L 574.00 159.00 L 572.00 161.00 L 572.00 166.00 L 570.00 168.00 L 570.00 173.00 L 568.00 175.00 L 568.00 179.00 L 566.00 180.00 L 565.00 182.00 L 563.00 181.00 L 563.00 177.00 L 561.00 175.00 L 561.00 171.00 L 559.00 169.00 L 559.00 165.00 L 557.00 163.00 L 557.00 158.00 L 555.00 157.00 L 555.00 153.00 L 553.00 151.00 L 553.00 148.00 L 551.00 146.00 L 551.00 142.00 L 549.00 140.00 L 549.00 135.00 L 547.00 133.00 L 547.00 129.00 L 545.00 127.00 L 545.00 122.00 L 543.00 121.00 L 543.00 116.00 L 541.00 115.00 L 541.00 110.00 L 539.00 109.00 L 539.00 104.00 L 537.00 103.00 L 537.00 98.00 L 535.00 96.00 L 535.00 92.00 L 533.00 91.00 L 533.00 86.00 L 531.00 84.00 L 531.00 80.00 L 491.00 80.00 L 490.00 81.00 L 490.00 85.00 L 488.00 86.00 L 488.00 92.00 L 486.00 94.00 L 486.00 98.00 L 484.00 100.00 L 484.00 103.00 L 482.00 105.00 L 482.00 109.00 L 480.00 111.00 L 480.00 115.00 L 478.00 117.00 L 478.00 123.00 L 476.00 124.00 L 476.00 129.00 L 474.00 130.00 L 474.00 135.00 L 472.00 136.00 L 472.00 141.00 L 470.00 143.00 L 470.00 147.00 L 468.00 149.00 L 468.00 153.00 L 466.00 155.00 L 466.00 159.00 L 464.00 160.00 L 464.00 166.00 L 462.00 168.00 L 462.00 172.00 L 460.00 174.00 L 460.00 178.00 L 458.00 180.00 L 458.00 184.00 L 456.00 186.00 L 455.00 185.00 L 455.00 181.00 L 453.00 179.00 L 453.00 175.00 L 451.00 173.00 L 451.00 168.00 L 449.00 167.00 L 449.00 162.00 L 447.00 161.00 L 447.00 156.00 L 445.00 155.00 L 445.00 150.00 L 443.00 149.00 L 443.00 144.00 L 441.00 142.00 L 441.00 136.00 L 439.00 135.00 L 439.00 130.00 L 437.00 129.00 L 437.00 123.00 L 435.00 121.00 L 435.00 117.00 L 433.00 115.00 L 433.00 110.00 L 431.00 109.00 L 431.00 103.00 L 429.00 101.00 L 429.00 97.00 L 427.00 95.00 L 427.00 91.00 L 425.00 89.00 L 425.00 84.00 L 423.00 83.00 L 423.00 80.00 Z M 953.00 80.00 L 951.00 80.00 L 949.00 78.00 L 918.00 78.00 L 916.00 80.00 L 911.00 80.00 L 909.00 82.00 L 906.00 82.00 L 905.00 84.00 L 902.00 84.00 L 901.00 86.00 L 898.00 86.00 L 898.00 87.00 L 896.00 88.00 L 896.00 89.00 L 894.00 90.00 L 894.00 91.00 L 892.00 92.00 L 891.00 94.00 L 890.00 94.00 L 886.00 97.00 L 885.00 96.00 L 885.00 81.00 L 884.00 80.00 L 840.00 80.00 L 840.00 251.00 L 885.00 251.00 L 885.00 150.00 L 887.00 149.00 L 887.00 144.00 L 889.00 143.00 L 889.00 140.00 L 891.00 138.00 L 891.00 136.00 L 893.00 135.00 L 893.00 134.00 L 895.00 133.00 L 895.00 132.00 L 898.00 129.00 L 899.00 129.00 L 899.00 128.00 L 901.00 127.00 L 902.00 125.00 L 905.00 125.00 L 906.00 123.00 L 909.00 123.00 L 911.00 121.00 L 922.00 121.00 L 925.00 119.00 L 933.00 119.00 L 936.00 121.00 L 941.00 121.00 L 943.00 123.00 L 949.00 123.00 L 950.00 124.00 L 953.00 124.00 Z M 1221.00 77.00 L 1220.00 78.00 L 1220.00 252.00 L 1221.00 253.00 L 1223.00 253.00 L 1225.00 251.00 L 1263.00 251.00 L 1263.00 148.00 L 1265.00 146.00 L 1265.00 138.00 L 1267.00 137.00 L 1267.00 134.00 L 1269.00 133.00 L 1269.00 131.00 L 1271.00 129.00 L 1271.00 128.00 L 1278.00 123.00 L 1279.00 123.00 L 1280.00 121.00 L 1283.00 121.00 L 1284.00 119.00 L 1287.00 119.00 L 1288.00 117.00 L 1298.00 117.00 L 1299.00 116.00 L 1301.00 117.00 L 1309.00 117.00 L 1310.00 119.00 L 1313.00 119.00 L 1314.00 121.00 L 1317.00 121.00 L 1318.00 123.00 L 1319.00 123.00 L 1320.00 125.00 L 1321.00 125.00 L 1322.00 127.00 L 1323.00 127.00 L 1324.00 129.00 L 1326.00 130.00 L 1326.00 133.00 L 1328.00 134.00 L 1328.00 138.00 L 1330.00 140.00 L 1330.00 156.00 L 1332.00 159.00 L 1332.00 252.00 L 1333.00 253.00 L 1335.00 253.00 L 1337.00 251.00 L 1375.00 251.00 L 1375.00 135.00 L 1373.00 133.00 L 1373.00 125.00 L 1371.00 124.00 L 1371.00 118.00 L 1369.00 117.00 L 1369.00 113.00 L 1367.00 111.00 L 1367.00 108.00 L 1365.00 107.00 L 1365.00 104.00 L 1364.00 104.00 L 1363.00 102.00 L 1361.00 101.00 L 1361.00 99.00 L 1359.00 97.00 L 1359.00 96.00 L 1358.00 96.00 L 1357.00 94.00 L 1356.00 94.00 L 1355.00 92.00 L 1353.00 91.00 L 1353.00 90.00 L 1350.00 90.00 L 1349.00 88.00 L 1347.00 87.00 L 1347.00 86.00 L 1344.00 86.00 L 1343.00 84.00 L 1341.00 84.00 L 1339.00 82.00 L 1336.00 82.00 L 1335.00 80.00 L 1330.00 80.00 L 1328.00 78.00 L 1293.00 78.00 L 1291.00 80.00 L 1287.00 80.00 L 1285.00 82.00 L 1282.00 82.00 L 1281.00 84.00 L 1278.00 84.00 L 1277.00 86.00 L 1275.00 86.00 L 1273.00 88.00 L 1272.00 88.00 L 1269.00 92.00 L 1267.00 92.00 L 1265.00 94.00 L 1264.00 94.00 L 1263.00 93.00 L 1263.00 80.00 L 1224.00 80.00 L 1223.00 79.00 L 1223.00 77.00 Z M 266.00 78.00 L 265.00 80.00 L 260.00 80.00 L 259.00 82.00 L 254.00 82.00 L 253.00 84.00 L 250.00 84.00 L 248.00 86.00 L 246.00 86.00 L 245.00 88.00 L 242.00 88.00 L 241.00 90.00 L 239.00 90.00 L 237.00 92.00 L 236.00 92.00 L 235.00 94.00 L 231.00 96.00 L 227.00 100.00 L 226.00 100.00 L 226.00 101.00 L 224.00 102.00 L 223.00 104.00 L 222.00 104.00 L 222.00 107.00 L 220.00 108.00 L 220.00 109.00 L 218.00 110.00 L 217.00 112.00 L 216.00 112.00 L 216.00 115.00 L 214.00 116.00 L 214.00 117.00 L 212.00 119.00 L 212.00 121.00 L 210.00 123.00 L 210.00 125.00 L 208.00 127.00 L 208.00 131.00 L 206.00 132.00 L 206.00 135.00 L 204.00 137.00 L 204.00 143.00 L 202.00 145.00 L 202.00 157.00 L 200.00 159.00 L 200.00 175.00 L 202.00 177.00 L 202.00 189.00 L 204.00 191.00 L 204.00 197.00 L 206.00 198.00 L 206.00 203.00 L 208.00 204.00 L 208.00 208.00 L 209.00 208.00 L 210.00 209.00 L 210.00 211.00 L 212.00 212.00 L 212.00 215.00 L 214.00 216.00 L 214.00 218.00 L 216.00 220.00 L 216.00 221.00 L 218.00 222.00 L 218.00 224.00 L 220.00 226.00 L 220.00 227.00 L 221.00 227.00 L 222.00 229.00 L 223.00 229.00 L 224.00 231.00 L 225.00 231.00 L 226.00 233.00 L 227.00 233.00 L 228.00 235.00 L 229.00 235.00 L 230.00 237.00 L 232.00 238.00 L 232.00 239.00 L 239.00 243.00 L 240.00 245.00 L 243.00 245.00 L 244.00 247.00 L 247.00 247.00 L 248.00 249.00 L 251.00 249.00 L 252.00 251.00 L 256.00 251.00 L 258.00 253.00 L 263.00 253.00 L 264.00 255.00 L 272.00 255.00 L 274.00 257.00 L 311.00 257.00 L 313.00 255.00 L 319.00 255.00 L 320.00 253.00 L 325.00 253.00 L 326.00 251.00 L 329.00 251.00 L 331.00 249.00 L 334.00 249.00 L 336.00 247.00 L 338.00 247.00 L 340.00 245.00 L 341.00 245.00 L 342.00 243.00 L 345.00 243.00 L 345.00 242.00 L 347.00 241.00 L 347.00 240.00 L 349.00 239.00 L 350.00 237.00 L 351.00 237.00 L 353.00 235.00 L 355.00 235.00 L 355.00 234.00 L 357.00 233.00 L 357.00 232.00 L 361.00 229.00 L 361.00 226.00 L 363.00 225.00 L 363.00 224.00 L 365.00 223.00 L 366.00 221.00 L 367.00 221.00 L 367.00 218.00 L 369.00 217.00 L 369.00 214.00 L 367.00 212.00 L 366.00 212.00 L 365.00 210.00 L 362.00 210.00 L 361.00 208.00 L 359.00 207.00 L 359.00 206.00 L 358.00 206.00 L 356.00 204.00 L 354.00 204.00 L 353.00 202.00 L 352.00 202.00 L 351.00 200.00 L 349.00 199.00 L 349.00 198.00 L 347.00 198.00 L 345.00 196.00 L 338.00 196.00 L 338.00 197.00 L 336.00 198.00 L 336.00 199.00 L 333.00 202.00 L 332.00 202.00 L 332.00 205.00 L 324.00 210.00 L 323.00 212.00 L 321.00 212.00 L 319.00 214.00 L 318.00 214.00 L 317.00 216.00 L 312.00 216.00 L 311.00 218.00 L 306.00 218.00 L 304.00 220.00 L 283.00 220.00 L 281.00 218.00 L 274.00 218.00 L 273.00 216.00 L 270.00 216.00 L 269.00 214.00 L 266.00 214.00 L 265.00 212.00 L 263.00 211.00 L 263.00 210.00 L 262.00 210.00 L 260.00 208.00 L 258.00 208.00 L 257.00 206.00 L 255.00 205.00 L 255.00 203.00 L 253.00 201.00 L 253.00 200.00 L 252.00 200.00 L 251.00 198.00 L 249.00 197.00 L 249.00 194.00 L 247.00 192.00 L 247.00 188.00 L 245.00 187.00 L 245.00 180.00 L 246.00 179.00 L 344.00 179.00 L 345.00 178.00 L 347.00 179.00 L 353.00 179.00 L 354.00 178.00 L 359.00 178.00 L 360.00 179.00 L 372.00 179.00 L 374.00 177.00 L 375.00 177.00 L 375.00 156.00 L 373.00 154.00 L 373.00 142.00 L 371.00 141.00 L 371.00 134.00 L 369.00 133.00 L 369.00 128.00 L 367.00 127.00 L 367.00 123.00 L 363.00 118.00 L 363.00 116.00 L 361.00 115.00 L 361.00 112.00 L 360.00 112.00 L 359.00 110.00 L 357.00 109.00 L 357.00 107.00 L 355.00 105.00 L 355.00 104.00 L 354.00 104.00 L 353.00 102.00 L 352.00 102.00 L 351.00 100.00 L 350.00 100.00 L 349.00 98.00 L 348.00 98.00 L 347.00 96.00 L 345.00 95.00 L 345.00 94.00 L 344.00 94.00 L 342.00 92.00 L 340.00 92.00 L 339.00 90.00 L 336.00 90.00 L 335.00 88.00 L 333.00 87.00 L 333.00 86.00 L 330.00 86.00 L 328.00 84.00 L 324.00 84.00 L 323.00 82.00 L 318.00 82.00 L 317.00 80.00 L 312.00 80.00 L 310.00 78.00 L 282.00 78.00 L 281.00 77.00 L 278.00 77.00 L 277.00 78.00 Z M 245.00 144.00 L 247.00 143.00 L 247.00 138.00 L 249.00 137.00 L 249.00 135.00 L 251.00 133.00 L 251.00 132.00 L 253.00 131.00 L 253.00 130.00 L 255.00 128.00 L 255.00 126.00 L 257.00 125.00 L 258.00 123.00 L 261.00 123.00 L 261.00 122.00 L 263.00 121.00 L 264.00 119.00 L 267.00 119.00 L 268.00 117.00 L 271.00 117.00 L 273.00 115.00 L 281.00 115.00 L 283.00 113.00 L 293.00 113.00 L 295.00 115.00 L 303.00 115.00 L 304.00 117.00 L 308.00 117.00 L 310.00 119.00 L 311.00 119.00 L 312.00 121.00 L 314.00 121.00 L 317.00 125.00 L 319.00 125.00 L 320.00 126.00 L 320.00 127.00 L 322.00 129.00 L 322.00 131.00 L 323.00 131.00 L 324.00 133.00 L 326.00 134.00 L 326.00 137.00 L 328.00 138.00 L 328.00 143.00 L 329.00 144.00 L 327.00 146.00 L 249.00 146.00 Z M 1573.00 80.00 L 1531.00 80.00 L 1529.00 82.00 L 1529.00 84.00 L 1531.00 84.00 L 1532.00 85.00 L 1532.00 95.00 L 1531.00 96.00 L 1529.00 94.00 L 1528.00 94.00 L 1527.00 92.00 L 1526.00 92.00 L 1524.00 90.00 L 1522.00 90.00 L 1521.00 88.00 L 1519.00 87.00 L 1519.00 86.00 L 1516.00 86.00 L 1515.00 84.00 L 1512.00 84.00 L 1511.00 82.00 L 1506.00 82.00 L 1505.00 80.00 L 1499.00 80.00 L 1497.00 78.00 L 1487.00 78.00 L 1486.00 77.00 L 1483.00 77.00 L 1482.00 76.00 L 1473.00 76.00 L 1471.00 78.00 L 1456.00 78.00 L 1454.00 80.00 L 1448.00 80.00 L 1447.00 82.00 L 1444.00 82.00 L 1443.00 84.00 L 1439.00 84.00 L 1434.00 88.00 L 1432.00 88.00 L 1432.00 89.00 L 1428.00 92.00 L 1426.00 92.00 L 1426.00 93.00 L 1424.00 94.00 L 1424.00 95.00 L 1422.00 96.00 L 1422.00 97.00 L 1420.00 98.00 L 1420.00 99.00 L 1418.00 100.00 L 1418.00 101.00 L 1416.00 102.00 L 1416.00 103.00 L 1414.00 104.00 L 1414.00 105.00 L 1412.00 106.00 L 1411.00 108.00 L 1410.00 108.00 L 1410.00 109.00 L 1408.00 111.00 L 1408.00 113.00 L 1406.00 114.00 L 1406.00 115.00 L 1404.00 117.00 L 1404.00 119.00 L 1402.00 120.00 L 1402.00 123.00 L 1400.00 124.00 L 1400.00 127.00 L 1398.00 129.00 L 1398.00 133.00 L 1396.00 134.00 L 1396.00 139.00 L 1394.00 141.00 L 1394.00 149.00 L 1392.00 150.00 L 1392.00 187.00 L 1394.00 189.00 L 1394.00 197.00 L 1396.00 198.00 L 1396.00 203.00 L 1398.00 204.00 L 1398.00 207.00 L 1400.00 209.00 L 1400.00 211.00 L 1402.00 213.00 L 1402.00 215.00 L 1404.00 217.00 L 1404.00 219.00 L 1406.00 220.00 L 1406.00 221.00 L 1408.00 223.00 L 1408.00 225.00 L 1409.00 225.00 L 1410.00 227.00 L 1411.00 227.00 L 1412.00 229.00 L 1413.00 229.00 L 1414.00 231.00 L 1415.00 231.00 L 1416.00 233.00 L 1417.00 233.00 L 1418.00 235.00 L 1419.00 235.00 L 1420.00 237.00 L 1421.00 237.00 L 1422.00 239.00 L 1424.00 240.00 L 1424.00 241.00 L 1427.00 241.00 L 1428.00 243.00 L 1429.00 243.00 L 1430.00 245.00 L 1432.00 246.00 L 1432.00 247.00 L 1435.00 247.00 L 1436.00 249.00 L 1439.00 249.00 L 1440.00 251.00 L 1443.00 251.00 L 1445.00 253.00 L 1450.00 253.00 L 1452.00 255.00 L 1459.00 255.00 L 1460.00 257.00 L 1492.00 257.00 L 1494.00 255.00 L 1500.00 255.00 L 1502.00 253.00 L 1506.00 253.00 L 1508.00 251.00 L 1511.00 251.00 L 1511.00 250.00 L 1515.00 247.00 L 1517.00 247.00 L 1519.00 245.00 L 1521.00 245.00 L 1521.00 244.00 L 1523.00 243.00 L 1523.00 242.00 L 1527.00 239.00 L 1529.00 239.00 L 1531.00 237.00 L 1532.00 238.00 L 1532.00 247.00 L 1530.00 248.00 L 1530.00 257.00 L 1528.00 259.00 L 1528.00 263.00 L 1526.00 264.00 L 1526.00 267.00 L 1524.00 268.00 L 1523.00 270.00 L 1522.00 270.00 L 1522.00 272.00 L 1520.00 274.00 L 1520.00 275.00 L 1519.00 276.00 L 1517.00 276.00 L 1514.00 280.00 L 1512.00 280.00 L 1512.00 281.00 L 1508.00 284.00 L 1506.00 284.00 L 1504.00 286.00 L 1500.00 286.00 L 1498.00 288.00 L 1487.00 288.00 L 1485.00 290.00 L 1478.00 290.00 L 1476.00 288.00 L 1466.00 288.00 L 1464.00 286.00 L 1458.00 286.00 L 1457.00 284.00 L 1454.00 284.00 L 1452.00 282.00 L 1450.00 282.00 L 1449.00 280.00 L 1446.00 280.00 L 1445.00 278.00 L 1442.00 278.00 L 1441.00 276.00 L 1439.00 275.00 L 1439.00 274.00 L 1436.00 274.00 L 1435.00 272.00 L 1434.00 272.00 L 1433.00 270.00 L 1431.00 269.00 L 1431.00 268.00 L 1424.00 268.00 L 1424.00 269.00 L 1422.00 270.00 L 1422.00 271.00 L 1420.00 273.00 L 1420.00 275.00 L 1416.00 278.00 L 1415.00 278.00 L 1412.00 282.00 L 1411.00 282.00 L 1405.00 288.00 L 1404.00 288.00 L 1404.00 293.00 L 1406.00 295.00 L 1406.00 296.00 L 1407.00 297.00 L 1409.00 297.00 L 1410.00 299.00 L 1411.00 299.00 L 1412.00 301.00 L 1413.00 301.00 L 1414.00 303.00 L 1415.00 303.00 L 1416.00 305.00 L 1418.00 306.00 L 1418.00 307.00 L 1419.00 307.00 L 1421.00 309.00 L 1423.00 309.00 L 1424.00 311.00 L 1426.00 311.00 L 1428.00 313.00 L 1429.00 313.00 L 1430.00 315.00 L 1433.00 315.00 L 1434.00 317.00 L 1437.00 317.00 L 1439.00 319.00 L 1443.00 319.00 L 1444.00 321.00 L 1449.00 321.00 L 1450.00 323.00 L 1457.00 323.00 L 1458.00 325.00 L 1472.00 325.00 L 1474.00 327.00 L 1490.00 327.00 L 1491.00 326.00 L 1494.00 326.00 L 1495.00 325.00 L 1506.00 325.00 L 1508.00 323.00 L 1515.00 323.00 L 1517.00 321.00 L 1521.00 321.00 L 1522.00 319.00 L 1527.00 319.00 L 1528.00 317.00 L 1531.00 317.00 L 1532.00 315.00 L 1535.00 315.00 L 1536.00 313.00 L 1537.00 313.00 L 1539.00 311.00 L 1541.00 311.00 L 1541.00 310.00 L 1545.00 307.00 L 1547.00 307.00 L 1547.00 306.00 L 1549.00 305.00 L 1549.00 304.00 L 1551.00 303.00 L 1551.00 302.00 L 1553.00 301.00 L 1553.00 300.00 L 1555.00 299.00 L 1556.00 297.00 L 1557.00 297.00 L 1557.00 294.00 L 1559.00 293.00 L 1560.00 291.00 L 1561.00 291.00 L 1561.00 288.00 L 1563.00 287.00 L 1563.00 285.00 L 1567.00 280.00 L 1567.00 278.00 L 1569.00 276.00 L 1569.00 272.00 L 1571.00 270.00 L 1571.00 262.00 L 1573.00 261.00 L 1573.00 240.00 L 1575.00 238.00 L 1575.00 236.00 L 1574.00 235.00 L 1574.00 229.00 L 1573.00 228.00 L 1574.00 227.00 L 1574.00 215.00 L 1573.00 214.00 L 1573.00 208.00 L 1574.00 207.00 L 1574.00 185.00 L 1575.00 184.00 L 1575.00 167.00 L 1573.00 165.00 L 1573.00 157.00 L 1574.00 156.00 L 1574.00 151.00 L 1573.00 150.00 L 1573.00 127.00 L 1574.00 126.00 L 1574.00 119.00 L 1573.00 118.00 L 1573.00 103.00 L 1574.00 102.00 L 1574.00 97.00 L 1573.00 96.00 L 1574.00 95.00 L 1574.00 90.00 L 1575.00 89.00 L 1575.00 87.00 L 1574.00 86.00 L 1575.00 82.00 Z M 1473.00 115.00 L 1492.00 115.00 L 1494.00 117.00 L 1499.00 117.00 L 1500.00 119.00 L 1503.00 119.00 L 1505.00 121.00 L 1507.00 121.00 L 1508.00 123.00 L 1510.00 123.00 L 1512.00 125.00 L 1513.00 125.00 L 1514.00 127.00 L 1515.00 127.00 L 1516.00 129.00 L 1517.00 129.00 L 1518.00 131.00 L 1519.00 131.00 L 1520.00 133.00 L 1521.00 133.00 L 1522.00 135.00 L 1524.00 136.00 L 1524.00 139.00 L 1526.00 140.00 L 1526.00 143.00 L 1528.00 144.00 L 1528.00 147.00 L 1530.00 148.00 L 1530.00 155.00 L 1532.00 157.00 L 1532.00 178.00 L 1530.00 180.00 L 1530.00 186.00 L 1528.00 188.00 L 1528.00 191.00 L 1526.00 192.00 L 1526.00 195.00 L 1524.00 196.00 L 1523.00 198.00 L 1522.00 198.00 L 1522.00 201.00 L 1520.00 202.00 L 1520.00 203.00 L 1518.00 204.00 L 1518.00 205.00 L 1516.00 206.00 L 1516.00 207.00 L 1514.00 208.00 L 1513.00 210.00 L 1511.00 210.00 L 1509.00 212.00 L 1508.00 212.00 L 1507.00 214.00 L 1504.00 214.00 L 1503.00 216.00 L 1498.00 216.00 L 1497.00 218.00 L 1489.00 218.00 L 1487.00 220.00 L 1478.00 220.00 L 1476.00 218.00 L 1468.00 218.00 L 1467.00 216.00 L 1464.00 216.00 L 1463.00 214.00 L 1458.00 214.00 L 1457.00 212.00 L 1455.00 211.00 L 1455.00 210.00 L 1452.00 210.00 L 1451.00 208.00 L 1449.00 207.00 L 1445.00 200.00 L 1444.00 200.00 L 1443.00 198.00 L 1441.00 197.00 L 1441.00 194.00 L 1439.00 193.00 L 1439.00 190.00 L 1437.00 189.00 L 1437.00 184.00 L 1435.00 182.00 L 1435.00 168.00 L 1433.00 166.00 L 1435.00 162.00 L 1435.00 152.00 L 1437.00 150.00 L 1437.00 146.00 L 1439.00 145.00 L 1439.00 142.00 L 1441.00 141.00 L 1441.00 138.00 L 1443.00 137.00 L 1443.00 134.00 L 1445.00 133.00 L 1445.00 132.00 L 1447.00 131.00 L 1447.00 130.00 L 1449.00 129.00 L 1449.00 128.00 L 1451.00 127.00 L 1451.00 126.00 L 1453.00 125.00 L 1454.00 123.00 L 1456.00 123.00 L 1458.00 121.00 L 1459.00 121.00 L 1460.00 119.00 L 1464.00 119.00 L 1466.00 117.00 L 1471.00 117.00 Z M 700.00 80.00 L 699.00 82.00 L 694.00 82.00 L 693.00 84.00 L 690.00 84.00 L 689.00 86.00 L 686.00 86.00 L 685.00 88.00 L 682.00 88.00 L 681.00 90.00 L 678.00 90.00 L 678.00 91.00 L 676.00 92.00 L 676.00 93.00 L 674.00 94.00 L 673.00 96.00 L 671.00 96.00 L 667.00 100.00 L 666.00 100.00 L 666.00 101.00 L 664.00 102.00 L 663.00 104.00 L 662.00 104.00 L 662.00 105.00 L 660.00 107.00 L 660.00 109.00 L 658.00 110.00 L 657.00 112.00 L 656.00 112.00 L 656.00 115.00 L 654.00 116.00 L 653.00 118.00 L 652.00 118.00 L 652.00 121.00 L 650.00 122.00 L 650.00 125.00 L 648.00 126.00 L 648.00 129.00 L 646.00 131.00 L 646.00 133.00 L 644.00 135.00 L 644.00 141.00 L 642.00 142.00 L 642.00 150.00 L 640.00 152.00 L 640.00 183.00 L 642.00 184.00 L 642.00 193.00 L 644.00 194.00 L 644.00 199.00 L 646.00 200.00 L 646.00 205.00 L 648.00 206.00 L 648.00 209.00 L 650.00 210.00 L 650.00 213.00 L 652.00 214.00 L 652.00 217.00 L 653.00 217.00 L 654.00 219.00 L 656.00 220.00 L 656.00 223.00 L 657.00 223.00 L 658.00 225.00 L 659.00 225.00 L 660.00 227.00 L 661.00 227.00 L 662.00 229.00 L 663.00 229.00 L 664.00 231.00 L 665.00 231.00 L 666.00 233.00 L 667.00 233.00 L 668.00 235.00 L 669.00 235.00 L 670.00 237.00 L 671.00 237.00 L 672.00 239.00 L 674.00 240.00 L 674.00 241.00 L 677.00 241.00 L 678.00 243.00 L 679.00 243.00 L 681.00 245.00 L 683.00 245.00 L 684.00 247.00 L 687.00 247.00 L 688.00 249.00 L 691.00 249.00 L 692.00 251.00 L 695.00 251.00 L 697.00 253.00 L 702.00 253.00 L 704.00 255.00 L 711.00 255.00 L 712.00 257.00 L 749.00 257.00 L 750.00 255.00 L 758.00 255.00 L 760.00 253.00 L 763.00 253.00 L 765.00 251.00 L 769.00 251.00 L 770.00 249.00 L 773.00 249.00 L 774.00 247.00 L 777.00 247.00 L 778.00 245.00 L 781.00 245.00 L 782.00 243.00 L 783.00 243.00 L 785.00 241.00 L 787.00 241.00 L 787.00 240.00 L 789.00 239.00 L 789.00 238.00 L 791.00 237.00 L 791.00 236.00 L 793.00 235.00 L 797.00 231.00 L 799.00 231.00 L 799.00 230.00 L 801.00 229.00 L 801.00 228.00 L 803.00 226.00 L 803.00 224.00 L 805.00 223.00 L 806.00 221.00 L 807.00 221.00 L 807.00 218.00 L 809.00 217.00 L 810.00 215.00 L 811.00 215.00 L 811.00 212.00 L 813.00 211.00 L 813.00 208.00 L 815.00 207.00 L 815.00 204.00 L 817.00 203.00 L 817.00 198.00 L 819.00 197.00 L 819.00 192.00 L 821.00 190.00 L 821.00 179.00 L 823.00 177.00 L 823.00 155.00 L 821.00 153.00 L 821.00 143.00 L 819.00 141.00 L 819.00 136.00 L 817.00 135.00 L 817.00 130.00 L 815.00 129.00 L 815.00 126.00 L 813.00 125.00 L 813.00 123.00 L 809.00 118.00 L 809.00 116.00 L 808.00 116.00 L 807.00 114.00 L 805.00 113.00 L 805.00 110.00 L 804.00 110.00 L 803.00 108.00 L 802.00 108.00 L 801.00 106.00 L 800.00 106.00 L 799.00 104.00 L 798.00 104.00 L 797.00 102.00 L 796.00 102.00 L 795.00 100.00 L 794.00 100.00 L 793.00 98.00 L 791.00 97.00 L 791.00 96.00 L 790.00 96.00 L 788.00 94.00 L 786.00 94.00 L 785.00 92.00 L 783.00 91.00 L 783.00 90.00 L 780.00 90.00 L 779.00 88.00 L 778.00 88.00 L 776.00 86.00 L 773.00 86.00 L 771.00 84.00 L 768.00 84.00 L 766.00 82.00 L 762.00 82.00 L 760.00 80.00 L 753.00 80.00 L 751.00 78.00 L 737.00 78.00 L 734.00 76.00 L 729.00 76.00 L 727.00 78.00 L 708.00 78.00 L 707.00 80.00 Z M 722.00 115.00 L 739.00 115.00 L 741.00 117.00 L 747.00 117.00 L 748.00 119.00 L 751.00 119.00 L 752.00 121.00 L 755.00 121.00 L 756.00 123.00 L 757.00 123.00 L 759.00 125.00 L 761.00 125.00 L 762.00 127.00 L 763.00 127.00 L 764.00 129.00 L 765.00 129.00 L 766.00 131.00 L 767.00 131.00 L 768.00 133.00 L 770.00 134.00 L 770.00 136.00 L 772.00 138.00 L 772.00 140.00 L 774.00 142.00 L 774.00 144.00 L 776.00 146.00 L 776.00 149.00 L 778.00 150.00 L 778.00 159.00 L 780.00 160.00 L 780.00 172.00 L 778.00 173.00 L 778.00 183.00 L 776.00 185.00 L 776.00 190.00 L 774.00 192.00 L 774.00 194.00 L 772.00 196.00 L 772.00 197.00 L 770.00 198.00 L 770.00 201.00 L 768.00 202.00 L 768.00 203.00 L 766.00 204.00 L 766.00 205.00 L 764.00 206.00 L 764.00 207.00 L 762.00 208.00 L 761.00 210.00 L 760.00 210.00 L 758.00 212.00 L 756.00 212.00 L 755.00 214.00 L 752.00 214.00 L 751.00 216.00 L 746.00 216.00 L 745.00 218.00 L 736.00 218.00 L 735.00 220.00 L 730.00 220.00 L 728.00 218.00 L 718.00 218.00 L 717.00 216.00 L 712.00 216.00 L 711.00 214.00 L 708.00 214.00 L 707.00 212.00 L 705.00 212.00 L 703.00 210.00 L 702.00 210.00 L 701.00 208.00 L 700.00 208.00 L 699.00 206.00 L 698.00 206.00 L 697.00 204.00 L 696.00 204.00 L 695.00 202.00 L 693.00 201.00 L 693.00 198.00 L 692.00 198.00 L 691.00 196.00 L 689.00 195.00 L 689.00 192.00 L 687.00 191.00 L 687.00 187.00 L 685.00 185.00 L 685.00 180.00 L 683.00 179.00 L 683.00 155.00 L 685.00 153.00 L 685.00 148.00 L 687.00 146.00 L 687.00 142.00 L 689.00 141.00 L 689.00 139.00 L 691.00 137.00 L 691.00 136.00 L 693.00 135.00 L 694.00 133.00 L 695.00 133.00 L 695.00 130.00 L 697.00 129.00 L 698.00 127.00 L 699.00 127.00 L 701.00 125.00 L 703.00 125.00 L 703.00 124.00 L 705.00 123.00 L 706.00 121.00 L 709.00 121.00 L 710.00 119.00 L 713.00 119.00 L 714.00 117.00 L 720.00 117.00 Z M 970.00 6.00 L 968.00 8.00 L 968.00 10.00 L 970.00 12.00 L 969.00 13.00 L 969.00 18.00 L 970.00 19.00 L 970.00 24.00 L 969.00 25.00 L 969.00 27.00 L 970.00 28.00 L 970.00 91.00 L 969.00 92.00 L 969.00 94.00 L 970.00 95.00 L 970.00 100.00 L 969.00 101.00 L 969.00 104.00 L 970.00 105.00 L 970.00 247.00 L 968.00 248.00 L 968.00 250.00 L 970.00 252.00 L 970.00 253.00 L 972.00 253.00 L 974.00 251.00 L 1013.00 251.00 L 1013.00 247.00 L 1014.00 246.00 L 1014.00 241.00 L 1013.00 240.00 L 1013.00 178.00 L 1015.00 177.00 L 1016.00 179.00 L 1017.00 179.00 L 1018.00 181.00 L 1020.00 182.00 L 1020.00 184.00 L 1022.00 186.00 L 1022.00 187.00 L 1023.00 187.00 L 1024.00 189.00 L 1025.00 189.00 L 1026.00 191.00 L 1027.00 191.00 L 1028.00 193.00 L 1030.00 194.00 L 1030.00 197.00 L 1031.00 197.00 L 1032.00 199.00 L 1033.00 199.00 L 1034.00 201.00 L 1036.00 202.00 L 1036.00 205.00 L 1037.00 205.00 L 1038.00 207.00 L 1039.00 207.00 L 1040.00 209.00 L 1041.00 209.00 L 1042.00 211.00 L 1044.00 212.00 L 1044.00 214.00 L 1046.00 216.00 L 1046.00 217.00 L 1047.00 217.00 L 1048.00 219.00 L 1049.00 219.00 L 1050.00 221.00 L 1052.00 222.00 L 1052.00 224.00 L 1054.00 226.00 L 1054.00 227.00 L 1055.00 227.00 L 1056.00 229.00 L 1057.00 229.00 L 1058.00 231.00 L 1060.00 232.00 L 1060.00 234.00 L 1062.00 236.00 L 1062.00 237.00 L 1063.00 237.00 L 1064.00 239.00 L 1065.00 239.00 L 1066.00 241.00 L 1068.00 242.00 L 1068.00 244.00 L 1070.00 246.00 L 1070.00 247.00 L 1071.00 247.00 L 1072.00 249.00 L 1074.00 250.00 L 1074.00 251.00 L 1131.00 251.00 L 1131.00 248.00 L 1130.00 248.00 L 1129.00 246.00 L 1127.00 245.00 L 1127.00 244.00 L 1123.00 240.00 L 1123.00 238.00 L 1122.00 238.00 L 1121.00 236.00 L 1120.00 236.00 L 1119.00 234.00 L 1117.00 233.00 L 1117.00 231.00 L 1115.00 229.00 L 1115.00 228.00 L 1114.00 228.00 L 1113.00 226.00 L 1112.00 226.00 L 1111.00 224.00 L 1110.00 224.00 L 1109.00 222.00 L 1108.00 222.00 L 1107.00 220.00 L 1105.00 219.00 L 1105.00 216.00 L 1104.00 216.00 L 1103.00 214.00 L 1102.00 214.00 L 1101.00 212.00 L 1100.00 212.00 L 1099.00 210.00 L 1098.00 210.00 L 1097.00 208.00 L 1095.00 207.00 L 1095.00 204.00 L 1094.00 204.00 L 1093.00 202.00 L 1092.00 202.00 L 1091.00 200.00 L 1090.00 200.00 L 1089.00 198.00 L 1087.00 197.00 L 1087.00 196.00 L 1085.00 194.00 L 1085.00 192.00 L 1084.00 192.00 L 1083.00 190.00 L 1082.00 190.00 L 1081.00 188.00 L 1080.00 188.00 L 1079.00 186.00 L 1077.00 185.00 L 1077.00 182.00 L 1076.00 182.00 L 1075.00 180.00 L 1074.00 180.00 L 1073.00 178.00 L 1072.00 178.00 L 1071.00 176.00 L 1070.00 176.00 L 1069.00 174.00 L 1067.00 173.00 L 1067.00 171.00 L 1063.00 167.00 L 1063.00 166.00 L 1062.00 166.00 L 1061.00 164.00 L 1060.00 164.00 L 1059.00 162.00 L 1057.00 161.00 L 1058.00 159.00 L 1058.00 157.00 L 1057.00 156.00 L 1057.00 152.00 L 1058.00 151.00 L 1059.00 153.00 L 1061.00 153.00 L 1061.00 151.00 L 1059.00 150.00 L 1061.00 149.00 L 1061.00 148.00 L 1063.00 147.00 L 1063.00 146.00 L 1065.00 145.00 L 1065.00 144.00 L 1067.00 143.00 L 1067.00 142.00 L 1069.00 141.00 L 1069.00 140.00 L 1071.00 139.00 L 1071.00 138.00 L 1073.00 137.00 L 1073.00 136.00 L 1075.00 135.00 L 1075.00 134.00 L 1077.00 133.00 L 1077.00 132.00 L 1079.00 131.00 L 1079.00 130.00 L 1081.00 129.00 L 1082.00 127.00 L 1083.00 127.00 L 1083.00 125.00 L 1087.00 121.00 L 1087.00 120.00 L 1089.00 119.00 L 1089.00 118.00 L 1091.00 117.00 L 1091.00 116.00 L 1093.00 115.00 L 1093.00 114.00 L 1095.00 113.00 L 1095.00 112.00 L 1097.00 111.00 L 1097.00 110.00 L 1099.00 109.00 L 1099.00 108.00 L 1101.00 107.00 L 1101.00 106.00 L 1103.00 105.00 L 1103.00 104.00 L 1105.00 103.00 L 1105.00 102.00 L 1107.00 101.00 L 1108.00 99.00 L 1109.00 99.00 L 1109.00 97.00 L 1111.00 95.00 L 1111.00 94.00 L 1113.00 93.00 L 1113.00 92.00 L 1115.00 91.00 L 1115.00 90.00 L 1117.00 89.00 L 1117.00 88.00 L 1119.00 87.00 L 1120.00 85.00 L 1123.00 84.00 L 1124.00 83.00 L 1124.00 81.00 L 1123.00 80.00 L 1066.00 80.00 L 1066.00 81.00 L 1064.00 82.00 L 1064.00 84.00 L 1062.00 86.00 L 1062.00 87.00 L 1060.00 88.00 L 1060.00 89.00 L 1058.00 90.00 L 1058.00 91.00 L 1056.00 92.00 L 1056.00 93.00 L 1054.00 94.00 L 1054.00 95.00 L 1052.00 96.00 L 1052.00 97.00 L 1050.00 98.00 L 1050.00 99.00 L 1048.00 100.00 L 1048.00 101.00 L 1046.00 102.00 L 1045.00 104.00 L 1044.00 104.00 L 1044.00 105.00 L 1042.00 107.00 L 1042.00 109.00 L 1040.00 110.00 L 1040.00 111.00 L 1038.00 112.00 L 1038.00 113.00 L 1036.00 114.00 L 1036.00 115.00 L 1034.00 116.00 L 1034.00 117.00 L 1032.00 118.00 L 1032.00 119.00 L 1030.00 120.00 L 1030.00 121.00 L 1028.00 122.00 L 1027.00 124.00 L 1026.00 124.00 L 1026.00 125.00 L 1024.00 127.00 L 1024.00 129.00 L 1022.00 130.00 L 1022.00 131.00 L 1020.00 132.00 L 1020.00 133.00 L 1018.00 134.00 L 1017.00 136.00 L 1016.00 136.00 L 1013.00 133.00 L 1013.00 6.00 Z M 2.00 6.00 L 2.00 15.00 L 0.00 17.00 L 0.00 20.00 L 2.00 23.00 L 2.00 93.00 L 1.00 94.00 L 1.00 98.00 L 2.00 99.00 L 2.00 110.00 L 0.00 112.00 L 1.00 118.00 L 2.00 119.00 L 2.00 141.00 L 1.00 142.00 L 1.00 150.00 L 2.00 151.00 L 2.00 207.00 L 1.00 208.00 L 1.00 214.00 L 2.00 215.00 L 2.00 224.00 L 1.00 225.00 L 1.00 228.00 L 2.00 229.00 L 2.00 236.00 L 0.00 240.00 L 0.00 245.00 L 2.00 247.00 L 1.00 248.00 L 1.00 251.00 L 45.00 251.00 L 45.00 240.00 L 47.00 239.00 L 50.00 242.00 L 50.00 243.00 L 53.00 243.00 L 54.00 245.00 L 56.00 246.00 L 56.00 247.00 L 59.00 247.00 L 60.00 249.00 L 63.00 249.00 L 64.00 251.00 L 67.00 251.00 L 69.00 253.00 L 73.00 253.00 L 74.00 255.00 L 80.00 255.00 L 82.00 257.00 L 117.00 257.00 L 119.00 255.00 L 125.00 255.00 L 126.00 253.00 L 131.00 253.00 L 132.00 251.00 L 135.00 251.00 L 136.00 249.00 L 139.00 249.00 L 141.00 247.00 L 144.00 247.00 L 146.00 245.00 L 147.00 245.00 L 148.00 243.00 L 151.00 243.00 L 151.00 242.00 L 153.00 241.00 L 153.00 240.00 L 155.00 239.00 L 155.00 238.00 L 157.00 237.00 L 158.00 235.00 L 160.00 235.00 L 162.00 233.00 L 163.00 233.00 L 163.00 232.00 L 165.00 231.00 L 166.00 229.00 L 167.00 229.00 L 167.00 228.00 L 169.00 226.00 L 169.00 224.00 L 171.00 223.00 L 172.00 221.00 L 173.00 221.00 L 173.00 220.00 L 175.00 218.00 L 175.00 216.00 L 177.00 215.00 L 177.00 212.00 L 179.00 211.00 L 179.00 208.00 L 181.00 207.00 L 181.00 204.00 L 183.00 202.00 L 183.00 199.00 L 185.00 197.00 L 185.00 190.00 L 187.00 188.00 L 187.00 175.00 L 189.00 173.00 L 189.00 162.00 L 187.00 160.00 L 187.00 145.00 L 185.00 143.00 L 185.00 135.00 L 183.00 133.00 L 183.00 130.00 L 181.00 129.00 L 181.00 126.00 L 179.00 125.00 L 179.00 122.00 L 177.00 121.00 L 177.00 118.00 L 175.00 117.00 L 175.00 114.00 L 174.00 114.00 L 173.00 112.00 L 171.00 111.00 L 171.00 108.00 L 170.00 108.00 L 169.00 106.00 L 168.00 106.00 L 167.00 104.00 L 166.00 104.00 L 165.00 102.00 L 164.00 102.00 L 163.00 100.00 L 162.00 100.00 L 161.00 98.00 L 160.00 98.00 L 159.00 96.00 L 157.00 95.00 L 157.00 94.00 L 156.00 94.00 L 154.00 92.00 L 152.00 92.00 L 151.00 90.00 L 149.00 90.00 L 144.00 86.00 L 142.00 86.00 L 141.00 84.00 L 138.00 84.00 L 136.00 82.00 L 132.00 82.00 L 131.00 80.00 L 126.00 80.00 L 125.00 78.00 L 111.00 78.00 L 109.00 76.00 L 101.00 76.00 L 99.00 78.00 L 81.00 78.00 L 79.00 80.00 L 74.00 80.00 L 72.00 82.00 L 68.00 82.00 L 67.00 84.00 L 64.00 84.00 L 63.00 86.00 L 62.00 86.00 L 60.00 88.00 L 58.00 88.00 L 57.00 90.00 L 54.00 90.00 L 54.00 91.00 L 52.00 92.00 L 52.00 93.00 L 50.00 94.00 L 50.00 95.00 L 48.00 96.00 L 47.00 98.00 L 46.00 98.00 L 45.00 97.00 L 45.00 6.00 Z M 76.00 117.00 L 82.00 117.00 L 84.00 115.00 L 106.00 115.00 L 108.00 117.00 L 113.00 117.00 L 114.00 119.00 L 117.00 119.00 L 118.00 121.00 L 121.00 121.00 L 122.00 123.00 L 123.00 123.00 L 125.00 125.00 L 127.00 125.00 L 128.00 127.00 L 129.00 127.00 L 130.00 129.00 L 132.00 130.00 L 132.00 133.00 L 133.00 133.00 L 134.00 135.00 L 135.00 135.00 L 136.00 137.00 L 138.00 138.00 L 138.00 141.00 L 140.00 142.00 L 140.00 145.00 L 142.00 147.00 L 142.00 152.00 L 144.00 154.00 L 144.00 181.00 L 142.00 183.00 L 142.00 189.00 L 140.00 190.00 L 140.00 193.00 L 138.00 194.00 L 137.00 196.00 L 136.00 196.00 L 136.00 199.00 L 134.00 200.00 L 134.00 201.00 L 132.00 202.00 L 132.00 203.00 L 130.00 204.00 L 130.00 205.00 L 128.00 206.00 L 128.00 207.00 L 126.00 208.00 L 126.00 209.00 L 124.00 210.00 L 123.00 212.00 L 120.00 212.00 L 119.00 214.00 L 116.00 214.00 L 115.00 216.00 L 110.00 216.00 L 109.00 218.00 L 99.00 218.00 L 97.00 220.00 L 91.00 220.00 L 89.00 218.00 L 79.00 218.00 L 77.00 216.00 L 74.00 216.00 L 73.00 214.00 L 70.00 214.00 L 69.00 212.00 L 68.00 212.00 L 66.00 210.00 L 64.00 210.00 L 63.00 208.00 L 62.00 208.00 L 61.00 206.00 L 60.00 206.00 L 59.00 204.00 L 58.00 204.00 L 57.00 202.00 L 56.00 202.00 L 55.00 200.00 L 54.00 200.00 L 53.00 198.00 L 51.00 197.00 L 51.00 194.00 L 49.00 193.00 L 49.00 190.00 L 47.00 189.00 L 47.00 183.00 L 45.00 181.00 L 45.00 154.00 L 47.00 152.00 L 47.00 146.00 L 49.00 145.00 L 49.00 142.00 L 51.00 141.00 L 51.00 138.00 L 53.00 137.00 L 53.00 136.00 L 55.00 134.00 L 55.00 132.00 L 57.00 131.00 L 57.00 130.00 L 59.00 129.00 L 59.00 128.00 L 61.00 127.00 L 62.00 125.00 L 65.00 125.00 L 65.00 124.00 L 67.00 123.00 L 68.00 121.00 L 71.00 121.00 L 73.00 119.00 L 75.00 119.00 Z" fill="#288846" fill-rule="evenodd" clip-rule="evenodd"/>
  <path d="M 1174.00 0.00 L 1171.00 2.00 L 1163.00 2.00 L 1158.00 6.00 L 1156.00 6.00 L 1156.00 7.00 L 1154.00 8.00 L 1154.00 9.00 L 1152.00 10.00 L 1152.00 11.00 L 1150.00 12.00 L 1149.00 14.00 L 1148.00 14.00 L 1148.00 17.00 L 1146.00 18.00 L 1146.00 21.00 L 1144.00 22.00 L 1144.00 43.00 L 1146.00 44.00 L 1146.00 47.00 L 1148.00 48.00 L 1148.00 51.00 L 1149.00 51.00 L 1150.00 53.00 L 1151.00 53.00 L 1152.00 55.00 L 1153.00 55.00 L 1154.00 57.00 L 1155.00 57.00 L 1156.00 59.00 L 1158.00 60.00 L 1158.00 61.00 L 1161.00 61.00 L 1162.00 63.00 L 1169.00 63.00 L 1171.00 65.00 L 1179.00 65.00 L 1181.00 63.00 L 1187.00 63.00 L 1188.00 61.00 L 1191.00 61.00 L 1192.00 59.00 L 1195.00 59.00 L 1195.00 58.00 L 1197.00 57.00 L 1198.00 55.00 L 1199.00 55.00 L 1199.00 54.00 L 1201.00 52.00 L 1201.00 50.00 L 1203.00 49.00 L 1203.00 46.00 L 1205.00 45.00 L 1205.00 35.00 L 1207.00 33.00 L 1207.00 31.00 L 1205.00 28.00 L 1205.00 21.00 L 1203.00 19.00 L 1203.00 17.00 L 1201.00 15.00 L 1201.00 14.00 L 1199.00 13.00 L 1199.00 11.00 L 1196.00 8.00 L 1194.00 8.00 L 1193.00 6.00 L 1191.00 5.00 L 1191.00 4.00 L 1188.00 4.00 L 1187.00 2.00 L 1180.00 2.00 L 1178.00 0.00 Z" fill="#F4C656" fill-rule="evenodd" clip-rule="evenodd"/>
</svg>
